<svg width="25" height="25" viewBox="0 0 25 25" fill="none" xmlns="http://www.w3.org/2000/svg">
<path d="M0.43934 22.4393C-0.146447 23.0251 -0.146447 23.9749 0.43934 24.5607C1.02513 25.1464 1.97487 25.1464 2.56066 24.5607L1.5 23.5L0.43934 22.4393ZM25 1.5C25 0.671571 24.3284 -1.47156e-06 23.5 -2.52523e-06L10 -2.01947e-06C9.17157 -2.01947e-06 8.5 0.671571 8.5 1.5C8.5 2.32843 9.17157 3 10 3H22V15C22 15.8284 22.6716 16.5 23.5 16.5C24.3284 16.5 25 15.8284 25 15L25 1.5ZM1.5 23.5L2.56066 24.5607L24.5607 2.56066L23.5 1.5L22.4393 0.439338L0.43934 22.4393L1.5 23.5Z" fill="white"/>
</svg>
