<svg width="69" height="74" viewBox="0 0 69 74" fill="none" xmlns="http://www.w3.org/2000/svg">
<path d="M64 41.8198C66.7614 41.8198 69 39.5812 69 36.8198C69 34.0584 66.7614 31.8198 64 31.8198V36.8198V41.8198ZM1.46447 33.2843C-0.488152 35.2369 -0.488152 38.4027 1.46447 40.3554L33.2843 72.1752C35.2369 74.1278 38.4027 74.1278 40.3553 72.1752C42.308 70.2225 42.308 67.0567 40.3553 65.1041L12.0711 36.8198L40.3553 8.53555C42.308 6.58293 42.308 3.41711 40.3553 1.46449C38.4027 -0.488136 35.2369 -0.488136 33.2843 1.46449L1.46447 33.2843ZM64 36.8198V31.8198L5 31.8198V36.8198V41.8198L64 41.8198V36.8198Z" fill="#4ED7F1"/>
</svg>
