<svg width="40" height="30" viewBox="0 0 40 30" fill="none" xmlns="http://www.w3.org/2000/svg">
<path d="M37.6538 16.7279C38.7584 16.7279 39.6538 15.8325 39.6538 14.7279C39.6538 13.6233 38.7584 12.7279 37.6538 12.7279V14.7279V16.7279ZM0.585999 13.3137C-0.195049 14.0947 -0.195049 15.3611 0.585999 16.1421L13.3139 28.87C14.095 29.6511 15.3613 29.6511 16.1423 28.87C16.9234 28.089 16.9234 26.8227 16.1423 26.0416L4.82864 14.7279L16.1423 3.4142C16.9234 2.63315 16.9234 1.36682 16.1423 0.58577C15.3613 -0.195279 14.095 -0.195279 13.3139 0.58577L0.585999 13.3137ZM37.6538 14.7279V12.7279L2.00021 12.7279V14.7279V16.7279L37.6538 16.7279V14.7279Z" fill="black"/>
</svg>
