<svg width="30" height="30" viewBox="0 0 30 30" fill="none" xmlns="http://www.w3.org/2000/svg">
<path d="M0 19.8483C0 20.7324 0.35119 21.5802 0.976311 22.2053C1.60143 22.8305 2.44928 23.1816 3.33333 23.1816H26.6667C27.5507 23.1816 28.3986 22.8305 29.0237 22.2053C29.6488 21.5802 30 20.7324 30 19.8483V15.6816H0V19.8483Z" fill="#138808"/>
<path d="M30 8.86377V4.6971C30 3.81305 29.6488 2.9652 29.0237 2.34008C28.3986 1.71496 27.5507 1.36377 26.6667 1.36377H3.33333C2.44928 1.36377 1.60143 1.71496 0.976311 2.34008C0.35119 2.9652 0 3.81305 0 4.6971L0 8.86377H30Z" fill="#FF9933"/>
<rect y="8.86377" width="30" height="6.81818" fill="#D9D9D9"/>
<path d="M15.0001 15.6061C16.841 15.6061 18.3334 14.1137 18.3334 12.2728C18.3334 10.4318 16.841 8.93945 15.0001 8.93945C13.1591 8.93945 11.6667 10.4318 11.6667 12.2728C11.6667 14.1137 13.1591 15.6061 15.0001 15.6061Z" fill="#000080"/>
<path d="M15 15.0854C16.5533 15.0854 17.8125 13.8263 17.8125 12.2729C17.8125 10.7196 16.5533 9.46045 15 9.46045C13.4467 9.46045 12.1875 10.7196 12.1875 12.2729C12.1875 13.8263 13.4467 15.0854 15 15.0854Z" fill="#F7F7F7"/>
<path d="M15.0833 11.231L14.9999 11.7726L14.9166 11.231L14.9999 9.60596L15.0833 11.231ZM14.3099 9.69679L14.6499 11.2876L14.8708 11.7893L14.8108 11.2451L14.3099 9.69679ZM13.6666 9.96346L14.4066 11.4118L14.7499 11.8393L14.5516 11.3285L13.6666 9.96346ZM13.1141 10.3868L14.2041 11.5951L14.6466 11.9193L14.3224 11.4768L13.1141 10.3868ZM12.6908 10.9393L14.0558 11.8243L14.5666 12.0226L14.1391 11.6793L12.6908 10.9393ZM12.4241 11.5826L13.9724 12.0835L14.5166 12.1435L14.0149 11.9226L12.4241 11.5826ZM12.3333 12.2726L13.9583 12.356L14.4999 12.2726L13.9583 12.1893L12.3333 12.2726ZM12.4241 12.9626L14.0149 12.6226L14.5166 12.4018L13.9724 12.4618L12.4241 12.9626ZM12.6908 13.606L14.1391 12.866L14.5666 12.5226L14.0558 12.721L12.6908 13.606ZM13.1141 14.1585L14.3224 13.0685L14.6466 12.626L14.2041 12.9501L13.1141 14.1585ZM13.6666 14.5818L14.5516 13.2168L14.7499 12.706L14.4066 13.1335L13.6666 14.5818ZM14.3099 14.8485L14.8108 13.3001L14.8708 12.756L14.6499 13.2576L14.3099 14.8485ZM14.9999 14.9393L15.0833 13.3143L14.9999 12.7726L14.9166 13.3143L14.9999 14.9393ZM15.6899 14.8485L15.3499 13.2576L15.1291 12.756L15.1891 13.3001L15.6899 14.8485ZM16.3333 14.5818L15.5933 13.1335L15.2499 12.706L15.4483 13.2168L16.3333 14.5818ZM16.8858 14.1585L15.7958 12.9501L15.3533 12.626L15.6774 13.0685L16.8858 14.1585ZM17.3091 13.606L15.9441 12.721L15.4333 12.5226L15.8608 12.866L17.3091 13.606ZM17.5758 12.9626L16.0274 12.4618L15.4833 12.4018L15.9849 12.6226L17.5758 12.9626ZM17.6666 12.2726L16.0416 12.1893L15.4999 12.2726L16.0416 12.356L17.6666 12.2726ZM17.5758 11.5826L15.9849 11.9226L15.4833 12.1435L16.0274 12.0835L17.5758 11.5826ZM17.3091 10.9393L15.8608 11.6793L15.4333 12.0226L15.9441 11.8243L17.3091 10.9393ZM16.8858 10.3868L15.6774 11.4768L15.3533 11.9193L15.7958 11.5951L16.8858 10.3868ZM16.3333 9.96346L15.4483 11.3285L15.2499 11.8393L15.5933 11.4118L16.3333 9.96346ZM15.6899 9.69679L15.1891 11.2451L15.1291 11.7893L15.3499 11.2876L15.6899 9.69679Z" fill="#6666B3"/>
</svg>
