<svg width="17" height="19" viewBox="0 0 17 19" fill="none" xmlns="http://www.w3.org/2000/svg">
<path d="M8.50664 13.7674C6.09325 13.7674 4.1466 11.8637 4.1466 9.50357C4.1466 7.14341 6.09325 5.2397 8.50664 5.2397C10.92 5.2397 12.8667 7.14341 12.8667 9.50357C12.8667 11.8637 10.92 13.7674 8.50664 13.7674ZM8.50664 6.7315C6.94704 6.7315 5.67204 7.97466 5.67204 9.50357C5.67204 11.0325 6.94325 12.2756 8.50664 12.2756C10.07 12.2756 11.3412 11.0325 11.3412 9.50357C11.3412 7.97466 10.0662 6.7315 8.50664 6.7315ZM14.062 13.9418C14.062 13.3889 13.6066 12.9473 13.045 12.9473C12.4796 12.9473 12.0281 13.3926 12.0281 13.9418C12.0281 14.4911 12.4834 14.9364 13.045 14.9364C13.6066 14.9364 14.062 14.4911 14.062 13.9418ZM16.9497 12.9325C16.8852 14.2647 16.574 15.4448 15.5761 16.417C14.5819 17.3893 13.3752 17.6936 12.0129 17.7604C10.6089 17.8383 6.40061 17.8383 4.9966 17.7604C3.63811 17.6973 2.43142 17.393 1.43343 16.4208C0.435435 15.4485 0.128069 14.2684 0.0597656 12.9362C-0.0199219 11.5631 -0.0199219 7.44771 0.0597656 6.07466C0.124275 4.74244 0.435435 3.56236 1.43343 2.59009C2.43142 1.61783 3.63432 1.31353 4.9966 1.24673C6.40061 1.1688 10.6089 1.1688 12.0129 1.24673C13.3752 1.30982 14.5819 1.61412 15.5761 2.59009C16.5703 3.56236 16.8814 4.74244 16.9497 6.07466C17.0294 7.44771 17.0294 11.5594 16.9497 12.9325ZM15.1359 4.60142C14.8399 3.87408 14.2669 3.31373 13.5194 3.02056C12.3999 2.58638 9.74369 2.68658 8.50664 2.68658C7.26959 2.68658 4.60954 2.59009 3.49392 3.02056C2.75017 3.31001 2.17718 3.87037 1.8774 4.60142C1.43343 5.69615 1.53588 8.2938 1.53588 9.50357C1.53588 10.7133 1.43722 13.3147 1.8774 14.4057C2.17338 15.1331 2.74637 15.6934 3.49392 15.9866C4.61334 16.4208 7.26959 16.3206 8.50664 16.3206C9.74369 16.3206 12.4037 16.417 13.5194 15.9866C14.2631 15.6971 14.8361 15.1368 15.1359 14.4057C15.5799 13.311 15.4774 10.7133 15.4774 9.50357C15.4774 8.2938 15.5799 5.69244 15.1359 4.60142Z" fill="#4ED7F1"/>
</svg>
