<svg width="17" height="16" viewBox="0 0 17 16" fill="none" xmlns="http://www.w3.org/2000/svg">
<path d="M15.8129 1.23659e-05H1.23916C1.07622 -0.000693802 0.91475 0.0288514 0.76407 0.0869413C0.613389 0.145031 0.476487 0.230515 0.361271 0.338454C0.246055 0.446393 0.154809 0.574649 0.0928025 0.715813C0.0307964 0.856977 -0.000740575 1.00825 1.31996e-05 1.1609V14.8391C1.31996e-05 15.4578 0.550324 16 1.23916 16H15.756C15.919 16.0008 16.0806 15.9713 16.2314 15.9133C16.3822 15.8553 16.5192 15.7698 16.6345 15.6619C16.7498 15.5539 16.8411 15.4256 16.9032 15.2844C16.9653 15.1432 16.9968 14.9918 16.9961 14.8391V1.13512C17.0521 0.516456 16.5008 1.23659e-05 15.8129 1.23659e-05ZM5.04105 13.6H2.53524V5.98667H5.042L5.04105 13.6ZM3.77439 4.92889C3.58239 4.92984 3.3921 4.89509 3.21454 4.82666C3.03697 4.75824 2.87566 4.65749 2.73994 4.53026C2.60422 4.40303 2.49679 4.25184 2.42387 4.08545C2.35095 3.91906 2.31398 3.74076 2.31511 3.56089C2.31511 2.81334 2.97549 2.19379 3.77439 2.19379C4.57329 2.19379 5.23556 2.81334 5.23556 3.56089C5.23556 4.30845 4.62832 4.92889 3.77439 4.92889ZM14.5453 13.6H12.0385V9.90933C12.0385 9.032 12.011 7.87111 10.7168 7.87111C9.3942 7.87111 9.20159 8.85155 9.20159 9.832V13.6H6.69483V5.98667H9.14656V7.04444H9.17408C9.53178 6.42578 10.3316 5.80622 11.5708 5.80622C14.1326 5.80622 14.6003 7.35467 14.6003 9.47111V13.6H14.5453Z" fill="#4ED7F1"/>
</svg>
