<svg width="18" height="15" viewBox="0 0 18 15" fill="none" xmlns="http://www.w3.org/2000/svg">
<path d="M7.2 10.7143L11.871 7.5L7.2 4.28571V10.7143ZM17.604 2.325C17.721 2.82857 17.802 3.50357 17.856 4.36071C17.919 5.21786 17.946 5.95714 17.946 6.6L18 7.5C18 9.84643 17.856 11.5714 17.604 12.675C17.379 13.6393 16.857 14.2607 16.047 14.5286C15.624 14.6679 14.85 14.7643 13.662 14.8286C12.492 14.9036 11.421 14.9357 10.431 14.9357L9 15C5.229 15 2.88 14.8286 1.953 14.5286C1.143 14.2607 0.621 13.6393 0.396 12.675C0.279 12.1714 0.198 11.4964 0.144 10.6393C0.0810001 9.78214 0.0539999 9.04286 0.0539999 8.4L0 7.5C0 5.15357 0.144 3.42857 0.396 2.325C0.621 1.36071 1.143 0.739286 1.953 0.471429C2.376 0.332143 3.15 0.235714 4.338 0.171428C5.508 0.0964284 6.579 0.0642857 7.569 0.0642857L9 0C12.771 0 15.12 0.171429 16.047 0.471429C16.857 0.739286 17.379 1.36071 17.604 2.325Z" fill="#4ED7F1"/>
</svg>
